<svg xmlns="http://www.w3.org/2000/svg" viewBox="0 0 403.25 491.53"><g fill="none" stroke="#000" stroke-width="2"><path stroke-linejoin="round" d="m71.04 357.24-19.47 13.98-23.97-.13-19.32-14.2L1 334.05l7.53-22.75L28 297.32l23.97.13 19.32 14.2 7.28 22.83z"/><path d="m28 297.32-.4 73.77m24.37-73.64-.4 73.77M8.53 311.3l62.76.34M1 334.05l77.57.43M8.28 356.9l62.76.34"/></g><g fill="none" stroke="#000" stroke-width="2"><path stroke-linejoin="round" d="m178.26 357.24-19.47 13.98-23.97-.13-19.32-14.2-7.28-22.84 7.53-22.75 19.47-13.98 23.97.13 19.32 14.2 7.28 22.83z"/><path d="m108.22 334.05 77.57.43m-70.04-23.18 19.07 59.79M115.5 356.9l19.72-59.58m23.57 73.9 19.72-59.58m-.25 45.6-19.07-59.8"/></g><g fill="none" stroke="#000" stroke-width="2"><path stroke-linejoin="round" d="M287.1 60.92 267.61 74.9l-23.97-.13-19.31-14.2-7.28-22.83 7.53-22.76L244.06 1l23.97.13 19.31 14.2 7.28 22.83z"/><path d="m224.59 14.98 62.5 45.94m-62.75-.34 63-45.25m-43.69 59.44 24.38-73.64m-.41 73.77L244.06 1m-27 36.74 77.56.42"/></g><g fill="none" stroke="#000"><path stroke-linejoin="round" stroke-width="2" d="M285.48 456 266 470l-23.97-.14-19.32-14.2-7.28-22.83 7.53-22.76 19.47-13.98 23.97.13 19.32 14.2 7.28 22.83z"/><path stroke-width="2" d="m222.72 455.66 63-45.25"/><path stroke-width=".26" d="M285.48 456z"/><path stroke-width="2" d="m222.97 410.07 62.5 45.94m-70.03-23.18 77.57.42m-50.57-37.16-.4 73.77m24.37-73.64-.4 73.77"/></g><g fill="none" stroke="#000" stroke-width="2"><path stroke-linejoin="round" d="M71.04 60.92 51.57 74.9l-23.97-.13-19.32-14.2L1 37.75l7.53-22.76L28 1l23.97.13 19.32 14.2 7.28 22.83z"/><path d="m71.29 15.33-.25 45.59M1 37.74l77.57.42M28 1l-.4 73.77M8.28 60.58l43.7-59.45m-.41 73.77L8.53 14.98"/></g><g fill="none" stroke="#000" stroke-width="2"><path stroke-linejoin="round" d="m286.29 258.46-19.47 13.99-23.97-.13-19.32-14.2-7.28-22.84 7.53-22.75 19.47-13.99 23.97.13 19.31 14.2 7.29 22.84z"/><path d="m216.25 235.28 77.57.43m-50.57-37.17 43.28 14.33m-19.31-14.2-43.44 13.86m-.25 45.59 43.29 14.33m-23.97-.13 43.44-13.86"/></g><g fill="none" stroke="#000" stroke-width="2"><path stroke-linejoin="round" d="m286.69 159.7-19.47 13.97-23.97-.13-19.31-14.2-7.29-22.83 7.53-22.76 19.47-13.98 23.97.13 19.32 14.2 7.28 22.84z"/><path d="m216.65 136.51 77.57.43m-70.04-23.19-.24 45.6m63-45.25-.25 45.6m-43.04-59.93-.4 73.77m24.37-73.64-.4 73.78"/></g><g fill="none" stroke="#000" stroke-width="2"><path stroke-linejoin="round" d="m178.66 258.46-19.47 13.99-23.97-.13-19.31-14.2-7.29-22.84 7.54-22.75 19.47-13.99 23.97.14 19.31 14.19 7.28 22.84z"/><path d="m135.63 198.54 43.28 14.33m-43.69 59.45 43.44-13.86m-62.76-.34 43.7-59.44m-43.44 13.85 43.03 59.92m-50.57-37.17 77.57.43"/></g><g fill="none" stroke="#000" stroke-width="2"><path stroke-linejoin="round" d="m394.31 159.7-19.47 13.98-23.97-.14-19.31-14.2-7.28-22.83 7.53-22.76 19.47-13.98 23.97.13 19.31 14.2 7.29 22.84z"/><path d="m374.84 173.68-43.28-14.33m.24-45.6 43.45-13.85m19.06 59.8.25-45.6m-43.28-14.33-.4 73.77m-26.6-37.03 77.57.43"/></g><g fill="none" stroke="#000" stroke-width="2"><path stroke-linejoin="round" d="M394.72 60.92 375.25 74.9l-23.97-.13-19.32-14.2-7.28-22.83 7.53-22.76L351.68 1l23.97.13 19.32 14.2 7.28 22.83z"/><path d="m324.68 37.74 77.57.42m-50.97 36.61 43.69-59.44m-19.32-14.2-43.69 59.45m43.29 14.32L332.2 14.98m62.52 45.94L351.68 1"/></g><g fill="none" stroke="#000" stroke-width="2"><path stroke-linejoin="round" d="m393.5 357.24-19.46 13.98-23.97-.13-19.32-14.2-7.28-22.84L331 311.3l19.47-13.98 23.97.13 19.32 14.2 7.28 22.83z"/><path d="m331 311.3 19.07 59.79m.4-73.77-19.72 59.57m-7.28-22.84 77.57.43m-26.6-37.03-.4 73.77m19.72-59.58-.25 45.6"/></g><g fill="none" stroke="#000" stroke-width="2"><path stroke-linejoin="round" d="m179.06 159.7-19.46 13.98-23.97-.14-19.32-14.2-7.28-22.83 7.53-22.76 19.47-13.98 23.97.13 19.31 14.2 7.29 22.84z"/><path d="m136.03 99.77 23.57 73.9m.4-73.77-24.37 73.64m-19.07-59.79-.25 45.6m63-45.25-.25 45.6m-70.03-23.19 77.57.43"/></g><g fill="none" stroke="#000" stroke-width="2"><path stroke-linejoin="round" d="m71.04 159.7-19.47 13.98-23.97-.14-19.32-14.2L1 136.52l7.53-22.76L28 99.77l23.97.13 19.32 14.2 7.28 22.84z"/><path d="M28 99.77 8.28 159.35m.25-45.6 62.76.35M1 136.51l77.57.43M51.97 99.9l-.4 73.77m-23.97-.13 43.44-13.85"/></g><g fill="none" stroke="#000" stroke-width="2"><path stroke-linejoin="round" d="m177.85 456-19.47 14-23.97-.14-19.31-14.2-7.28-22.83 7.53-22.76 19.47-13.98 23.97.13 19.31 14.2 7.29 22.83z"/><path d="m115.35 410.07 43.44-13.85m-50.97 36.61 26.6 37.03m-19.32-14.2 19.72-59.57M158.38 470l27-36.75M177.85 456l.25-45.59"/></g><g fill="none" stroke="#000" stroke-width="2"><path stroke-linejoin="round" d="m71.04 456-19.47 14-23.97-.14-19.32-14.2L1 432.83l7.53-22.76L28 396.1l23.97.13 19.32 14.2 7.28 22.83z"/><path d="m8.28 455.66 70.29-22.4m-27 36.74.4-73.78M1 432.83l27-36.74M8.53 410.07l19.07 59.79M71.04 456l.25-45.59"/></g><g fill="none" stroke="#000" stroke-width="2"><path stroke-linejoin="round" d="m285.88 357.24-19.47 13.98-23.97-.13-19.31-14.2-7.28-22.84 7.53-22.75 19.47-13.98 23.97.13 19.31 14.2 7.28 22.83z"/><path d="m266.82 297.45-.4 73.77m19.71-59.58-.25 45.6m-43.44 13.85 50.97-36.61m-70.28 22.42.25-45.6m-7.53 22.75 27-36.73"/></g><path fill="none" stroke="#000" stroke-linecap="round" stroke-width="2" d="m27.6 272.32 23.97.13m19.47-13.99-19.47 13.99m-23.97-.13-19.32-14.2M1 235.28l7.53-22.75m0 0L28 198.54m0 0 23.97.14m19.32 14.19 7.28 22.84M1 235.28l7.28 22.84m43.69-59.45 19.32 14.2m-62.76-.34 70.04 23.18M1 235.28l70.04 23.18m-62.76-.34 43.29 14.33m19.47-13.99L27.6 272.32m43.69-59.45L28 198.54m23.97.13 26.6 37.04"/><path fill="none" stroke="#000" stroke-width="2" d="m394.16 212.87-19.32-14.2m-23.97-.13-19.46 13.99m-.01 0-7.53 22.75m0 0 7.29 22.84m0 0 19.31 14.2m0 0 23.97.13m19.47-13.99-19.47 13.99m27-36.75-77.57-.42m27-36.74 23.97.14m26.6 37.02-26.6-37.02m-.4 73.77 27-36.74m-7.53 22.75-62.5-45.93m-.25 45.59 63-45.25m-43.69 59.45.4-73.78"/><g fill="none" stroke="#000"><path stroke-linejoin="round" stroke-width="2" d="M179.47 60.92 160 74.9l-23.97-.13-19.32-14.2-7.28-22.83 7.53-22.76L136.43 1l23.97.13 19.32 14.2L187 38.16z"/><path stroke-width="2" d="m160 74.9 27-36.74"/><path stroke-width=".26" d="M179.72 15.33Z"/><path stroke-width="2" d="m179.47 60.92.25-45.6m-43.69 59.45-19.07-59.79m-7.53 22.76 50.97-36.6m-43.69 59.44L136.43 1"/></g><path d="M38.98 84.44v5.42l-.1 1.52-1.54.1-.1.82h5.1l-.1-.82-1.53-.1-.1-1.52v-4.2l.1-2.54-3.47.4.1.82z" aria-label="1"/><path d="M144.22 92.3h7.14v-1.32h-5.86v-.04l1.66-1.05c1.48-.91 4-2.28 4-4.25 0-1.93-1.93-2.52-3.54-2.52-1.13 0-2.13.24-3.2.6l.1 1.74.83-.1.1-.87c.55-.3 1.26-.56 1.9-.56 1.03 0 2.08.6 2.08 1.73 0 1.07-.83 1.9-1.57 2.56l-3.64 2.76z" aria-label="2"/><path d="m254.44 84.03.1-.82a3.2 3.2 0 0 1 1.95-.6c.97 0 1.95.6 1.95 1.65 0 1.17-1.19 1.98-2.1 2.5-.42-.06-1.2-.08-1.64-.08l-.26 1.32h.34c.8 0 1.88.17 2.6.5.77.33 1.41 1.1 1.41 1.98a2.3 2.3 0 0 1-2.35 2.33 5.5 5.5 0 0 1-2-.49l-.1-.95-.81-.1-.1 1.95c.94.24 1.91.4 2.9.4 1 0 2.06-.18 2.89-.8a3.24 3.24 0 0 0 1.3-2.46c0-1.73-1.52-2.93-3.08-3.34V87c1.18-.48 2.62-1.47 2.62-2.9 0-1.67-1.76-2.3-3.16-2.3-1.1 0-2.36.24-3.37.66l.1 1.68z" aria-label="3"/><path d="M367.27 90.85v1.74l-.82.1-.1.84h3.35l-.1-.83-.81-.1v-1.7l2.29.07v-1.22l-2.29-.07V81.9h-.81l-6.74 7.96v.81zm-4.66-1.37 4.66-5.49v5.64z" aria-label="4"/><path d="m36.7 187.15 1.04-.09c.95 0 1.88.14 2.71.63.88.5 1.2 1.19 1.2 2.17a2.6 2.6 0 0 1-2.64 2.69c-.62 0-1.15-.12-1.7-.4l-.1-.77-.82-.1-.1 1.7c.9.23 1.83.4 2.74.4 1.12 0 2.24-.29 3.07-1.03a3.75 3.75 0 0 0 1.18-2.75c0-1.42-.71-2.6-1.96-3.26a7.57 7.57 0 0 0-3.5-.66h-.14l.1-2.51h5.15v-1.42h-6.24z" aria-label="5"/><path d="M150.49 179.65a6.25 6.25 0 0 0-2.73-.56c-3.4 0-5.03 3.06-5.03 6.1 0 2.6 1.12 5.73 4.2 5.73 2.4 0 4.07-1.9 4.07-4.25a3.43 3.43 0 0 0-3.53-3.55c-1.25 0-2.38.64-3.03 1.7h-.03a7 7 0 0 1 .74-3.09c.6-1.19 1.29-1.83 2.66-1.83.6 0 1.15.22 1.66.53l.1.91.82.1zm-3.54 4.33c1.67 0 2.42 1.64 2.42 3.12 0 1.35-.58 3.01-2.18 3.01-1.77 0-2.65-1.83-2.65-3.37 0-1.42.87-2.76 2.4-2.76z" aria-label="6"/><path d="M251.38 181.84H258l-2.47 3.23a27.51 27.51 0 0 0-2.4 3.53 9.05 9.05 0 0 0-1.14 3.35l1.95-.1a8.28 8.28 0 0 1 1.34-4.44l3.96-5.98v-1.01h-7.86z" aria-label="7"/><path d="M362.78 183.31c-1.27.61-2.47 1.66-2.47 3.19 0 2.1 2 3.2 3.88 3.2 1.03 0 2.11-.27 2.93-.95a3.4 3.4 0 0 0 1.2-2.47c0-1.53-1.6-2.54-2.8-3.15 1.17-.55 2.34-1.46 2.34-2.87 0-1.67-1.86-2.4-3.28-2.4-1.71 0-3.56.93-3.56 2.85 0 1.1.88 2.04 1.76 2.6zm2.07-.56c-.88-.52-2.39-1.25-2.39-2.43 0-1.12.97-1.65 1.97-1.65 1.03 0 2.01.53 2.01 1.66 0 1.1-.7 1.88-1.6 2.42zm-.42 1.63c.47.25 1.11.63 1.54.98.5.44.72.85.72 1.53 0 1.23-1.15 2-2.28 2-.66 0-1.15-.12-1.64-.55a2.76 2.76 0 0 1 .73-4.49z" aria-label="8"/><path d="M36.16 292.32c.76.42 1.9.58 2.74.58 3.4 0 5.02-3.07 5.02-6.1 0-2.6-1.12-5.74-4.2-5.74-2.4 0-4.07 1.91-4.07 4.25a3.44 3.44 0 0 0 3.54 3.56c1.24 0 2.37-.65 3.03-1.7h.04c0 1.07-.3 2.14-.77 3.08-.57 1.19-1.28 1.83-2.65 1.83-.6 0-1.16-.22-1.65-.52l-.1-.92-.83-.1zm3.56-4.33c-1.7 0-2.43-1.63-2.43-3.1 0-1.36.58-3.02 2.19-3.02 1.74 0 2.62 1.83 2.62 3.36 0 1.43-.84 2.76-2.38 2.76z" aria-label="9"/><path stroke-width=".26" d="M141.32 282.38v5.42l-.1 1.52-1.54.1-.1.82h5.1l-.1-.82-1.53-.1-.1-1.52v-4.2l.1-2.54-3.47.4.1.82zm9.33-1.32c-2.81 0-4.28 2.01-4.28 4.69 0 2.68 1.47 4.7 4.28 4.7 2.83 0 4.28-2.02 4.28-4.7s-1.45-4.69-4.28-4.69zm0 1.02c1.98 0 2.56 2.04 2.56 3.67s-.58 3.67-2.56 3.67c-1.96 0-2.56-2.04-2.56-3.67s.6-3.67 2.56-3.67z" aria-label="10"/><path stroke-width=".26" d="M251.84 281.05v5.42l-.1 1.52-1.54.1-.1.82h5.1l-.1-.81-1.53-.1-.1-1.53v-4.2l.1-2.54-3.47.4.1.82zm6.49 0v5.42l-.1 1.52-1.55.1-.1.82h5.1l-.1-.81-1.53-.1-.1-1.53v-4.2l.1-2.54-3.47.4.1.82z" aria-label="11"/><path stroke-width=".26" d="M359 281.15v5.42l-.1 1.53-1.54.1-.1.81h5.1l-.1-.81-1.53-.1-.1-1.53v-4.2l.1-2.54-3.47.4.1.82zm5.05 7.86h7.14v-1.32h-5.86v-.03l1.66-1.05c1.48-.92 4-2.3 4-4.25 0-1.94-1.93-2.53-3.54-2.53-1.13 0-2.13.24-3.2.61l.1 1.73.83-.1.1-.87a4.2 4.2 0 0 1 1.9-.56c1.03 0 2.08.6 2.08 1.73 0 1.07-.83 1.9-1.57 2.56l-3.64 2.76z" aria-label="12"/><path stroke-width=".26" d="M34.71 381.08v5.41l-.1 1.53-1.54.1-.1.81h5.1l-.1-.81-1.53-.1-.1-1.53v-4.2l.1-2.53-3.47.4.1.81zm5.81.92.1-.82a3.2 3.2 0 0 1 1.95-.61c.96 0 1.95.6 1.95 1.66 0 1.17-1.19 1.98-2.1 2.5-.43-.06-1.2-.08-1.65-.08l-.25 1.32h.34c.8 0 1.88.17 2.59.5.78.33 1.42 1.1 1.42 1.97a2.3 2.3 0 0 1-2.35 2.34 5.5 5.5 0 0 1-2-.5l-.1-.94-.82-.1-.1 1.95c.95.23 1.92.4 2.9.4 1.01 0 2.06-.18 2.9-.81.74-.56 1.3-1.5 1.3-2.46 0-1.72-1.53-2.93-3.08-3.33v-.04c1.18-.47 2.62-1.47 2.62-2.9 0-1.67-1.76-2.3-3.17-2.3-1.1 0-2.35.24-3.37.67l.1 1.67z" aria-label="13"/><path stroke-width=".26" d="M141.98 381.08v5.41l-.1 1.53-1.54.1-.1.81h5.1l-.11-.81-1.52-.1-.1-1.53v-4.2l.1-2.53-3.48.4.1.81zm10.41 7.63v1.75l-.81.1-.1.83h3.35l-.1-.83-.82-.1v-1.7l2.29.07v-1.22l-2.29-.07v-7.78h-.81l-6.74 7.95v.82zm-4.66-1.37 4.66-5.48v5.63z" aria-label="14"/><path stroke-width=".26" d="M249.99 379.75v5.42l-.1 1.52-1.54.1-.1.81h5.1l-.11-.8-1.52-.11-.1-1.52v-4.2l.1-2.54-3.48.4.1.82zm5.5 4.28 1.05-.08c.95 0 1.88.13 2.7.62.89.5 1.21 1.19 1.21 2.17a2.6 2.6 0 0 1-2.64 2.7c-.63 0-1.15-.13-1.71-.41l-.1-.77-.82-.1-.1 1.7c.9.23 1.83.4 2.75.4 1.11 0 2.23-.29 3.06-1.03a3.75 3.75 0 0 0 1.19-2.74c0-1.43-.72-2.61-1.97-3.27a7.57 7.57 0 0 0-3.5-.66h-.14l.1-2.5h5.15v-1.43h-6.23z" aria-label="15"/><path stroke-width=".26" d="M357.15 379.85v5.42l-.1 1.52-1.54.1-.1.82h5.1l-.11-.82-1.52-.1-.1-1.52v-4.2l.1-2.54-3.48.4.1.82zm12.9-3.22a6.25 6.25 0 0 0-2.73-.56c-3.4 0-5.03 3.07-5.03 6.1 0 2.6 1.12 5.74 4.2 5.74 2.4 0 4.07-1.91 4.07-4.25a3.43 3.43 0 0 0-3.53-3.56c-1.25 0-2.38.65-3.03 1.7h-.03c0-1.07.27-2.14.74-3.09.6-1.18 1.3-1.82 2.66-1.82.6 0 1.15.22 1.66.52l.1.91.82.1zm-3.54 4.34c1.68 0 2.42 1.64 2.42 3.11 0 1.36-.58 3.02-2.18 3.02-1.77 0-2.65-1.83-2.65-3.37 0-1.43.87-2.76 2.4-2.76z" aria-label="16"/><path stroke-width=".26" d="M34.56 481.12v5.42l-.1 1.52-1.54.1-.1.82h5.1l-.1-.82-1.53-.1-.1-1.52v-4.2l.1-2.54-3.47.4.1.82zm4.34.3h6.61l-2.47 3.24a27.51 27.51 0 0 0-2.4 3.52 9.05 9.05 0 0 0-1.14 3.35l1.95-.1A8.28 8.28 0 0 1 42.8 487l3.96-5.98V480H38.9z" aria-label="17"/><path stroke-width=".26" d="M140.95 481.12v5.42l-.1 1.52-1.55.1-.1.82h5.1l-.1-.82-1.53-.1-.1-1.52v-4.2l.1-2.54-3.47.4.1.82zm7.51 1.68c-1.27.6-2.47 1.66-2.47 3.18 0 2.1 2 3.2 3.88 3.2 1.03 0 2.11-.27 2.93-.95a3.4 3.4 0 0 0 1.2-2.47c0-1.52-1.6-2.54-2.8-3.15 1.17-.54 2.34-1.46 2.34-2.86 0-1.68-1.86-2.4-3.28-2.4-1.71 0-3.56.92-3.56 2.84 0 1.1.88 2.05 1.76 2.6zm2.07-.56c-.88-.53-2.39-1.26-2.39-2.44 0-1.12.97-1.64 1.96-1.64 1.04 0 2.02.52 2.02 1.66 0 1.1-.7 1.88-1.6 2.42zm-.43 1.62c.48.26 1.12.63 1.55.98.5.44.72.85.72 1.53 0 1.23-1.15 2-2.28 2-.66 0-1.15-.12-1.64-.55a2.76 2.76 0 0 1 .73-4.49z" aria-label="18"/><path stroke-width=".26" d="M249.98 479.79v5.42l-.1 1.52-1.54.1-.1.82h5.1l-.1-.82-1.53-.1-.1-1.52V481l.1-2.54-3.47.4.1.82zm5.71 9.94c.76.42 1.9.58 2.74.58 3.4 0 5.01-3.07 5.01-6.1 0-2.6-1.12-5.74-4.2-5.74-2.4 0-4.06 1.91-4.06 4.25a3.44 3.44 0 0 0 3.54 3.56 3.6 3.6 0 0 0 3.03-1.7h.03c0 1.07-.29 2.14-.76 3.08-.57 1.19-1.29 1.83-2.66 1.83-.59 0-1.15-.22-1.64-.52l-.1-.92-.83-.1zm3.55-4.34c-1.7 0-2.42-1.62-2.42-3.1 0-1.35.58-3 2.19-3 1.74 0 2.62 1.82 2.62 3.34 0 1.44-.85 2.76-2.39 2.76z" aria-label="19"/></svg>