<svg xmlns="http://www.w3.org/2000/svg" fill="none" viewBox="0 0 348 348"><path stroke="#000" stroke-width="2" d="M5.08 5.78h336.91v337.67H5.08z"/><path stroke="#000" stroke-width="2" d="M282.73 40.55c0-8.37 6.97-15.16 15.56-15.16 4.13 0 8.09 1.6 11 4.44a14.97 14.97 0 0 1 4.56 10.72c0 8.38-6.96 15.17-15.56 15.17-8.59 0-15.56-6.8-15.56-15.17z"/><path fill="#000" fill-rule="evenodd" stroke="#000" stroke-linejoin="round" stroke-width="2" d="M16.44 108.29h80v80h-80z"/><path fill="#fff" d="m61.21 161.41-.9 4.23 9.86-.39.2-3.07-2.7-.38.9-5.76 2.75-14.66 2.56-10.81-6.72.76c-2.3-.44-3.77-.76-5.63-.76C49 130.57 39 146.82 39 158.15c0 4.22 2.11 7.87 6.72 7.87 7.3 0 14.21-9.28 17.54-15.04h.38zm3.46-17.34-6.72 9.54c-2.05 2.56-5.9 7.42-9.41 7.42-2.3 0-3-2.18-3-4.1 0-4.73 3.57-22.52 13.17-22.52 3.08 0 5.5.32 7.62 1.15z" aria-label="a"/><path fill="#fff" fill-rule="evenodd" stroke="#000" stroke-linejoin="round" stroke-width="2" d="M15.57 210.37h60v60h-60zm63.49 0h60v60h-60zm63.5 0h60v60h-60z"/><path stroke="#000" stroke-width="2" d="M5.54 5.17h336.92v337.66H5.54Z"/><path fill="#fff" fill-rule="evenodd" stroke="#000" stroke-linejoin="round" stroke-width="2" d="M15.57 274.37h60v60h-60zm63.49 0h60v60h-60zm63.5 0h60v60h-60zm63.5 0h60v60h-60zm63.5 0h60v60h-60z"/><g stroke="#000" stroke-width="1.38"><path stroke-linejoin="round" d="M67.17 320.25 53.7 329.9l-16.57-.09L23.78 320l-5.03-15.79 5.2-15.73 13.46-9.66 16.57.09 13.35 9.81 5.03 15.79z"/><path d="m37.42 278.83 29.92 9.9m-30.2 41.09 30.03-9.57M23.8 320l30.19-41.08m-30.03 9.58 29.75 41.41m-34.95-25.69 53.61.3"/></g><g stroke="#000" stroke-width="1.38"><path stroke-linejoin="round" d="m130.67 320.25-13.46 9.66-16.57-.09-13.35-9.81-5.04-15.79 5.21-15.73 13.46-9.66 16.57.09 13.35 9.81 5.03 15.79z"/><path d="m82.25 304.22 53.62.3M87.46 288.5l13.18 41.32M87.29 320l13.63-41.17m16.28 51.08 13.64-41.18m-.17 31.52-13.18-41.33"/></g><g stroke="#000" stroke-width="1.38"><path stroke-linejoin="round" d="m194.16 320.25-13.45 9.66-16.57-.09-13.35-9.81-5.04-15.79 5.2-15.73 13.47-9.66 16.56.09 13.36 9.81 5.03 15.79z"/><path d="m145.75 304.22 53.62.3m-35.23 25.3 30.2-41.09m-13.36-9.81L150.78 320m29.92 9.91-29.74-41.42m43.2 31.76-29.74-41.42"/></g><g stroke="#000" stroke-width="1.38"><path stroke-linejoin="round" d="m257.66 320.25-13.46 9.66-16.57-.09-13.35-9.81-5.03-15.79 5.2-15.73 13.46-9.66 16.57.09 13.35 9.81 5.04 15.79z"/><path d="m227.91 278.83-.28 51m16.85-50.91-.28 51m-29.74-41.42 43.37.23m-48.58 15.49 53.62.3M214.28 320l43.38.25"/></g><g stroke="#000" stroke-width="1.38"><path stroke-linejoin="round" d="m321.16 320.25-13.46 9.66-16.57-.09-13.35-9.81-5.03-15.79 5.2-15.73 13.46-9.66 16.57.09 13.35 9.81 5.03 15.79z"/><path d="m272.75 304.22 53.61.3m-34.95-25.69 29.92 9.9m-13.35-9.81-30.03 9.57m-.17 31.51 29.92 9.91m-16.57-.09 30.03-9.57"/></g><text xml:space="preserve" x="29.26" y="259.95" fill="#000" stroke-width=".8" font-family="Lucida Math Std" font-size="51.2" font-weight="400" letter-spacing=".8" style="line-height:1;-inkscape-font-specification:&quot;Lucida Math Std, Normal&quot;;font-variant-ligatures:normal;font-variant-caps:normal;font-variant-numeric:normal;font-variant-east-asian:normal" word-spacing=".8"><tspan x="29.26" y="259.95">b</tspan></text><text xml:space="preserve" x="94.86" y="259.95" fill="#000" stroke-width=".8" font-family="Lucida Math Std" font-size="51.2" font-weight="400" letter-spacing=".8" style="line-height:1;-inkscape-font-specification:&quot;Lucida Math Std, Normal&quot;;font-variant-ligatures:normal;font-variant-caps:normal;font-variant-numeric:normal;font-variant-east-asian:normal" word-spacing=".8"><tspan x="94.86" y="259.95">c</tspan></text><text xml:space="preserve" x="155.28" y="259.95" fill="#000" stroke-width=".8" font-family="Lucida Math Std" font-size="51.2" font-weight="400" letter-spacing=".8" style="line-height:1;-inkscape-font-specification:&quot;Lucida Math Std, Normal&quot;;font-variant-ligatures:normal;font-variant-caps:normal;font-variant-numeric:normal;font-variant-east-asian:normal" word-spacing=".8"><tspan x="155.28" y="259.95">d</tspan></text></svg>